<?xml version="1.0" encoding="UTF-8" standalone="no"?>
<!-- Created with Inkscape (http://www.inkscape.org/) -->

<svg
   width="170"
   height="150"
   viewBox="0 0 44.979166 39.687501"         
   xmlns="http://www.w3.org/2000/svg"
   xmlns:svg="http://www.w3.org/2000/svg">
  <sodipodi:namedview
     id="namedview7"
     pagecolor="#505050"
     bordercolor="#eeeeee"
     borderopacity="1"
     inkscape:pageshadow="0"
     inkscape:pageopacity="0"
     inkscape:pagecheckerboard="0"
     inkscape:document-units="mm"
     showgrid="false"
     units="px"
     width="170px"
     fit-margin-top="0"
     fit-margin-left="0"
     fit-margin-right="0"
     fit-margin-bottom="0"
     showguides="true"
     inkscape:guide-bbox="true"
     inkscape:zoom="2.1946698"
     inkscape:cx="74.726504"
     inkscape:cy="123.02534"
     inkscape:window-width="1858"
     inkscape:window-height="1057"
     inkscape:window-x="58"
     inkscape:window-y="-4"
     inkscape:window-maximized="1"
     inkscape:current-layer="layer1">
    <sodipodi:guide
       position="19.84375,19.84375"
       orientation="0,1"
       id="guide22128"
       inkscape:label=""
       inkscape:locked="false"
       inkscape:color="rgb(0,0,255)" />
    <sodipodi:guide
       position="22.489583,6.0520299"
       orientation="-1,0"
       id="guide22130"
       inkscape:label=""
       inkscape:locked="false"
       inkscape:color="rgb(0,0,255)" />
  </sodipodi:namedview>
  <defs
     id="defs2" />
  <g
     inkscape:label="Camada 1"
     inkscape:groupmode="layer"
     id="layer1">
    <text
       xml:space="preserve"
       style="font-style:normal;font-variant:normal;font-weight:normal;font-stretch:normal;font-size:12.7px;line-height:1.25;font-family:'Linux Libertine Display G';-inkscape-font-specification:'Linux Libertine Display G';letter-spacing:0px;word-spacing:0px;fill:#000000;fill-opacity:1;stroke:none;stroke-width:0.264583"
       x="8.31845"
       y="14.105197"
       id="text1850"><tspan
         sodipodi:role="line"
         style="font-style:normal;font-variant:normal;font-weight:normal;font-stretch:normal;font-family:'Helvetica LT Std';-inkscape-font-specification:'Helvetica LT Std';stroke-width:0.264583"
         x="8.31845"
         y="14.105197"
         id="tspan1852" /></text>
    <g
       aria-label="“„"
       id="text13298"
       style="font-size:41.66px;line-height:1.25;font-family:'Linux Libertine Display G';-inkscape-font-specification:'Linux Libertine Display G';letter-spacing:0px;word-spacing:0px;stroke-width:0.264583">
      <path
         d="m 20.801237,12.267223 q 0,1.423925 -1.057774,2.441015 -1.037431,0.996748 -2.461357,0.996748 -1.973154,0 -3.152978,-1.647685 -1.037432,-1.46461 -1.037432,-3.519131 0,-5.8787795 7.01792,-8.4215041 v 0.996748 q -1.932471,0.7119629 -3.173321,2.2579395 -1.342558,1.6476855 -1.342558,3.6208398 0,0.6916211 0.305127,0.6916211 0.101709,0 0.305127,-0.1423926 0.650937,-0.4678613 1.647685,-0.4678613 1.220508,0 2.115547,0.9967476 0.834014,0.956065 0.834014,2.196915 z m -9.784404,0 q 0,1.423925 -1.0577738,2.441015 -1.0374316,0.996748 -2.4613574,0.996748 -1.9731543,0 -3.1529785,-1.647685 -1.0374317,-1.46461 -1.0374317,-3.519131 0,-5.8787795 7.0179204,-8.4215041 v 0.996748 Q 8.3927408,3.8253768 7.1518912,5.3713534 5.8093326,7.0190389 5.8093326,8.9921932 q 0,0.6916211 0.305127,0.6916211 0.101709,0 0.305127,-0.1423926 0.6509374,-0.4678613 1.6476855,-0.4678613 1.2205078,0 2.1155469,0.9967476 0.834014,0.956065 0.834014,2.196915 z"
         style="font-weight:bold;font-family:David;-inkscape-font-specification:'David Bold'"
         id="path22540" />
      <path
         d="m 41.67192,29.211939 q 0,5.87878 -7.017919,8.421504 v -0.996748 q 1.912128,-0.711963 3.17332,-2.257939 1.322217,-1.647686 1.322217,-3.62084 0,-0.386494 -0.122051,-0.569571 -0.06103,-0.12205 -0.162735,-0.12205 -0.12205,0 -0.325468,0.142392 -0.67128,0.467862 -1.627344,0.467862 -1.24085,0 -2.115547,-0.996748 -0.834014,-0.935723 -0.834014,-2.196914 0,-1.423926 1.037432,-2.420674 1.037432,-1.01709 2.481699,-1.01709 1.973155,0 3.132637,1.647685 1.057773,1.484952 1.057773,3.519131 z m -9.784404,0 q 0,5.87878 -7.01792,8.421504 v -0.996748 q 1.912129,-0.711963 3.173321,-2.257939 1.322216,-1.647686 1.322216,-3.62084 0,-0.386494 -0.12205,-0.569571 -0.06103,-0.12205 -0.162735,-0.12205 -0.122051,0 -0.325469,0.142392 -0.671279,0.467862 -1.627343,0.467862 -1.24085,0 -2.115547,-0.996748 -0.834014,-0.935723 -0.834014,-2.196914 0,-1.423926 1.037432,-2.420674 1.037431,-1.01709 2.481699,-1.01709 1.973154,0 3.132637,1.647685 1.057773,1.484952 1.057773,3.519131 z"
         style="font-weight:bold;font-family:David;-inkscape-font-specification:'David Bold'"
         id="path22542" />
    </g>
  </g>
</svg>
